<?xml version="1.0" encoding="utf-8"?>
<!-- Generator: Adobe Illustrator 15.0.0, SVG Export Plug-In . SVG Version: 6.00 Build 0)  -->
<!DOCTYPE svg PUBLIC "-//W3C//DTD SVG 1.1//EN" "http://www.w3.org/Graphics/SVG/1.1/DTD/svg11.dtd">
<svg version="1.1" id="Layer_1" xmlns="http://www.w3.org/2000/svg" xmlns:xlink="http://www.w3.org/1999/xlink" x="0px" y="0px"
	 width="682px" height="692px" viewBox="0 -12.446 682 692" enable-background="new 0 -12.446 682 692" xml:space="preserve">
<g>
	<path fill="#FFFFFF" d="M98.85,68.412c-46.885,0-77.538,30.787-77.538,71.251c0,39.571,29.739,71.235,75.737,71.235h0.891
		c47.801,0,77.549-31.664,77.549-71.235C174.596,99.199,145.741,68.412,98.85,68.412z"/>
	<path fill="#FFFFFF" d="M29.413,267.198h137.062v412.355H29.413V267.198z"/>
	<path fill="#FFFFFF" d="M502.895,257.521c-73.938,0-123.52,69.479-123.52,69.479v-59.801H242.312v412.355h137.058V449.279
		c0-12.328,0.894-24.637,4.515-33.452c9.908-24.616,32.457-50.119,70.322-50.119c49.596,0,69.432,37.814,69.432,93.249v220.598
		h137.051V443.117C660.686,316.459,593.065,257.521,502.895,257.521z"/>
</g>
</svg>
